Coordinates
version=1
nRows=25
nColumns=23
inDegrees=yes

Units are S.I. units (second, meters, Newtons, ...)
If the header above contains a line with 'inDegrees', this indicates whether rotational values are in degrees (yes) or radians (no).

endheader
time	sacrum_pitch	sacrum_roll	sacrum_yaw	sacrum_x	sacrum_y	sacrum_z	sacroiliac_r_flx	hip_r_flx	hip_r_add	hip_r_int	knee_r_flx	ankle_r_flx	ankle_r_add	ankle_r_int	sacroiliac_l_flx	hip_l_flx	hip_l_add	hip_l_int	knee_l_flx	ankle_l_flx	ankle_l_add	ankle_l_int
      3.26000000	     20.02292293	     -6.40456749	     16.61923446	      0.11339920	      0.05786776	      0.00496857	      3.69999987	     50.31113557	    -20.70819793	    -11.67001409	    -93.50642318	     17.86848682	     -4.99999985	      0.00000000	      3.70000000	     27.13004259	    -19.25399105	     19.01937742	   -128.11075336	     25.05893181	     -4.99999985	      0.00000000
      3.26500000	     19.72389390	     -4.05514791	     16.95494673	      0.11570848	      0.05759669	      0.00582669	      3.69999987	     51.18680622	    -23.00495052	    -11.21784604	    -98.89331004	     18.46156623	     -4.99999985	      0.00000000	      3.70000000	     24.76256493	    -18.64880423	     18.54237578	   -126.06246434	     20.93025489	     -4.99999985	      0.00000000
      3.27000000	     18.90019413	     -2.54050268	     17.14708200	      0.11781862	      0.05741378	      0.00672100	      3.69999987	     51.59704126	    -25.33221267	    -12.21184450	   -101.37674396	     19.87792198	     -4.99999985	      0.00000000	      3.70000000	     24.75140877	    -18.56797392	     18.33166059	   -125.48837177	     16.99323339	     -4.99999985	      0.00000000
      3.27500000	     18.09736967	     -1.95487047	     16.72153146	      0.11961197	      0.05745378	      0.00767699	      3.69999987	     51.92304696	    -25.22424617	    -12.88479306	   -103.08389908	     20.92096973	     -4.99999985	      0.00000000	      3.70000000	     23.75084858	    -18.87225473	     18.92551306	   -123.70699503	     16.11086378	     -4.99999985	      0.00000000
      3.28000000	     18.49925013	     -0.96853861	     16.19563819	      0.12150796	      0.05717074	      0.00841278	      3.69999987	     52.20883671	    -25.62952086	    -12.44750013	   -106.87473350	     22.43675857	     -4.99999985	      0.00000000	      3.70000000	     21.93437412	    -19.17724963	     18.55025784	   -122.99993641	     14.52145573	     -4.99999985	      0.00000000
      3.28500000	     19.27537432	      0.61815260	     15.45489854	      0.12340939	      0.05687204	      0.00904971	      3.69999987	     51.73603975	    -25.77296454	    -11.18753619	   -109.90994712	     24.07154183	     -4.99999985	      0.00000000	      3.70000000	     19.61868631	    -19.04480325	     18.36385450	   -121.94215085	     11.05290904	     -4.99999985	      0.00000000
      3.29000000	     18.60815944	      1.47602438	     15.22678075	      0.12506323	      0.05690109	      0.00969285	      3.69999987	     52.23635033	    -25.76507417	    -10.56897902	   -111.79300070	     25.14380771	     -4.99999985	      0.00000000	      3.70000000	     19.60167554	    -17.70390269	     18.87442398	   -121.26316429	      7.68492651	     -4.99999985	      0.00000000
      3.29500000	     18.08775646	      1.93991041	     14.69004961	      0.12667693	      0.05697001	      0.00995842	      3.69999987	     51.42426750	    -25.42498388	    -10.58217679	   -111.69374611	     24.96517191	     -4.99999985	      0.00000000	      3.70000000	     19.38381922	    -17.71912299	     18.63252358	   -120.84639767	      7.73418405	     -4.99999985	      0.00000000
      3.30000000	     18.70638078	      2.59586530	     13.64686432	      0.12852289	      0.05674127	      0.01053867	      3.69999987	     51.42512559	    -24.89317412	    -10.43441895	   -115.56281781	     25.42863381	     -4.99999985	      0.00000000	      3.70000000	     17.49335223	    -17.76554150	     18.95010620	   -119.88734033	      4.81396061	     -4.99999985	      0.00000000
      3.30500000	     18.02434592	      3.11148933	     13.25655724	      0.13029459	      0.05661520	      0.01050831	      3.69999987	     50.64777120	    -24.64568272	    -10.44403363	   -115.31282844	     25.25760557	     -4.99999985	      0.00000000	      3.70000000	     17.17043885	    -17.77960418	     18.64746059	   -119.67561776	      4.80064635	     -4.99999985	      0.00000000
      3.31000000	     18.58603217	      4.80856835	     12.64480338	      0.13219171	      0.05656301	      0.01071407	      3.69999987	     49.91126286	    -24.79905320	     -8.96711825	   -117.59828442	     25.98045109	     -4.99999985	      0.00000000	      3.70000000	     16.16816629	    -13.24021686	     18.82242604	   -119.72776666	     -6.43812041	     -4.99999985	      0.00000000
      3.31500000	     18.44836922	      5.76106258	     12.08754054	      0.13408450	      0.05647474	      0.01059149	      3.69999987	     49.38906733	    -26.16453150	     -7.07122510	   -120.17500990	     29.84616439	     -4.99999985	      0.00000000	      3.70000000	     17.17213065	    -12.95510858	     18.25666999	   -121.18475107	     -8.62038988	     -4.99999985	      0.00000000
      3.32000000	     18.67112881	      5.79020219	     11.13546323	      0.13593947	      0.05640329	      0.01047154	      3.69999987	     48.46293892	    -26.32357146	     -7.10600718	   -121.53406813	     30.02275894	     -4.99999985	      0.00000000	      3.70000000	     18.03649880	    -12.21474660	     18.83661539	   -124.02663078	     -8.75615368	     -4.99999985	      0.00000000
      3.32500000	     19.05981517	      6.33237492	     10.94267351	      0.13792256	      0.05629522	      0.01053385	      3.69999987	     46.40736842	    -25.82129937	     -7.17522809	   -122.42827866	     29.19638772	     -4.99999985	      0.00000000	      3.70000000	     19.93041941	    -11.46062390	     20.04661561	   -127.99050932	     -8.06278851	     -4.99999985	      0.00000000
      3.33000000	     18.20364709	      5.97654926	     10.81307934	      0.13967041	      0.05668805	      0.01048137	      3.69999987	     45.20947230	    -25.77477093	     -7.83554753	   -122.24846327	     30.40247071	     -4.99999985	      0.00000000	      3.70000000	     23.61954935	     -9.89827948	     21.12081155	   -132.74527810	     -4.85795270	     -4.99999985	      0.00000000
      3.33500000	     18.21146762	      6.48959399	     10.62652070	      0.14162300	      0.05682421	      0.01018661	      3.69999987	     44.31299786	    -25.14451569	     -6.20835776	   -123.73847747	     31.86295713	     -4.99999985	      0.00000000	      3.70000000	     26.65195946	     -8.21358278	     22.19029870	   -137.75217518	      2.10272420	     -4.99999985	      0.00000000
      3.34000000	     18.29424461	      6.70823924	     10.14132854	      0.14359779	      0.05704099	      0.00991177	      3.69999987	     42.38381149	    -25.80565524	     -6.13286240	   -124.10147267	     31.52671610	     -4.99999985	      0.00000000	      3.70000000	     29.50164192	     -7.66222980	     22.65280876	   -141.28597845	     11.20082248	     -4.99999985	      0.00000000
      3.34500000	     18.20861684	      7.01134329	      9.95264596	      0.14568294	      0.05738282	      0.00973149	      3.69999987	     40.53721410	    -25.14594639	     -5.56838718	   -124.36078673	     31.32608515	     -4.99999985	      0.00000000	      3.70000000	     32.25293006	     -6.56837654	     23.63203889	   -143.38094933	     21.04041478	     -4.99999985	      0.00000000
      3.35000000	     18.49136390	      7.43209948	      9.50733611	      0.14767803	      0.05766452	      0.00939244	      3.69999987	     38.04273969	    -25.05629013	     -5.16764757	   -123.62704395	     30.83664617	     -4.99999985	      0.00000000	      3.70000000	     35.92979617	     -4.87109789	     23.60319495	   -144.68284609	     24.90764325	     -4.99999985	      0.00000000
      3.35500000	     19.08286694	      8.26308062	      9.57084695	      0.14987203	      0.05777692	      0.00908144	      3.69999987	     35.72220487	    -25.01845950	     -4.28340989	   -125.11447006	     30.58695521	     -4.99999985	      0.00000000	      3.70000000	     39.56845468	     -3.48802931	     23.41469260	   -145.19308861	     28.84024750	     -4.99999985	      0.00000000
      3.36000000	     18.51416699	      7.20987668	      8.62241059	      0.15160631	      0.05813765	      0.00850064	      3.69999987	     34.35185400	    -26.24137256	     -6.13588072	   -123.55826113	     31.09635402	     -4.99999985	      0.00000000	      3.70000000	     41.78806581	     -3.85589165	     22.83567315	   -143.99049901	     41.00873801	     -4.99999985	      0.00000000
      3.36500000	     19.31570593	      6.54474305	      7.45483969	      0.15368391	      0.05827550	      0.00799181	      3.69999987	     32.42766398	    -26.05816657	     -5.45478974	   -124.56179595	     30.55051855	     -4.99999985	      0.00000000	      3.70000000	     43.93686036	     -3.05857929	     22.54901831	   -142.29224024	     41.47886108	     -4.99999985	      0.00000000
      3.37000000	     20.16717852	      7.53497546	      8.97251471	      0.15557340	      0.05827773	      0.00753629	      3.69999987	     29.21218009	    -24.50590808	     -5.21836890	   -123.38061183	     28.84674916	     -4.99999985	      0.00000000	      3.70000000	     49.69338511	     -2.19520871	     19.93874515	   -141.19257797	     44.19488183	     -4.99999985	      0.00000000
      3.37500000	     20.78015627	      7.30221225	      7.51009938	      0.15778160	      0.05815491	      0.00668282	      3.69999987	     26.39242737	    -26.50030714	     -5.38462317	   -123.26224412	     29.31603657	     -4.99999985	      0.00000000	      3.70000000	     53.06959369	     -5.53643464	     16.21301047	   -138.92037329	     45.80119735	     -4.99999985	      0.00000000
      3.38000000	     21.33058652	      6.37125163	      7.33361532	      0.15974061	      0.05813930	      0.00643474	      3.69999987	     24.32966428	    -25.04776925	     -4.91782471	   -123.66652196	     28.29827806	     -4.99999985	      0.00000000	      3.70000000	     55.65596075	     -6.03004100	     14.66831506	   -134.77038588	     45.87547814	     -4.99999985	      0.00000000
